<?xml version="1.0" encoding="UTF-8"?>
<svg xmlns="http://www.w3.org/2000/svg" width="2241" height="2124" viewBox="0 0 2241 2124" version="1.1">
  <title>AHSO CRM Honey Badger Logo - approved vector trace</title>
  <desc>Editable vector trace generated from the approved logo concept in this conversation. Groups are separated for easy editing in Illustrator/Figma/Inkscape.</desc>
  <g id="logo_mark_black" fill="#000000" fill-rule="evenodd">
    <path d="M 99 430 L 72 502 L 78 613 L 123 721 L 189 805 L 174 916 L 126 1030 L 174 1012 L 108 1213 L 112 1229 L 171 1189 L 141 1315 L 141 1402 L 168 1504 L 190 1439 L 246 1579 L 367 1712 L 410 1742 L 388 1679 L 517 1784 L 808 1976 L 787 1928 L 850 1967 L 1032 2123 L 1205 2123 L 1369 1979 L 1448 1931 L 1419 1978 L 1753 1760 L 1849 1676 L 1830 1738 L 1870 1712 L 1997 1567 L 2044 1436 L 2069 1504 L 2093 1423 L 2096 1327 L 2063 1186 L 2125 1229 L 2111 1129 L 2060 1009 L 2108 1030 L 2057 898 L 2045 808 L 2129 694 L 2168 553 L 2150 451 L 2104 396 L 2044 384 L 1966 414 L 1905 466 L 1851 541 L 1927 548 L 1981 620 L 1995 610 L 1980 781 L 1999 749 L 2001 862 L 1968 1033 L 1987 1013 L 1959 1114 L 1866 1255 L 1615 1461 L 1546 1551 L 1595 1459 L 1838 1243 L 1921 1098 L 1901 1108 L 1949 970 L 1967 838 L 1940 859 L 1949 724 L 1921 639 L 1897 627 L 1825 636 L 1585 771 L 1600 726 L 1372 909 L 1396 846 L 1258 948 L 1121 989 L 991 954 L 841 846 L 871 912 L 637 726 L 652 771 L 427 642 L 376 627 L 316 639 L 288 712 L 295 864 L 270 832 L 291 988 L 336 1114 L 312 1102 L 408 1255 L 645 1465 L 691 1554 L 604 1446 L 359 1243 L 290 1141 L 245 1012 L 266 1027 L 233 832 L 238 752 L 257 781 L 245 616 L 257 622 L 304 551 L 386 541 L 292 429 L 235 396 L 160 384 Z M 1401 1741 L 1395 1747 L 1395 1750 L 1383 1762 L 1383 1765 L 1363 1785 L 1360 1785 L 1348 1797 L 1345 1797 L 1342 1800 L 1339 1800 L 1333 1806 L 1330 1806 L 1327 1809 L 1324 1809 L 1321 1812 L 1315 1812 L 1312 1815 L 1309 1815 L 1306 1818 L 1297 1818 L 1294 1821 L 1285 1821 L 1282 1824 L 1264 1824 L 1261 1827 L 1210 1827 L 1208 1825 L 1210 1823 L 1222 1823 L 1225 1820 L 1237 1820 L 1240 1817 L 1249 1817 L 1252 1814 L 1258 1814 L 1261 1811 L 1264 1811 L 1267 1808 L 1270 1808 L 1273 1805 L 1276 1805 L 1279 1802 L 1282 1802 L 1285 1799 L 1288 1799 L 1294 1793 L 1297 1793 L 1306 1784 L 1309 1784 L 1331 1762 L 1331 1759 L 1340 1750 L 1340 1747 L 1348 1739 L 1399 1739 Z M 836 1741 L 838 1739 L 889 1739 L 891 1741 L 891 1744 L 897 1750 L 897 1753 L 934 1790 L 937 1790 L 943 1796 L 946 1796 L 949 1799 L 952 1799 L 958 1805 L 961 1805 L 964 1808 L 970 1808 L 973 1811 L 976 1811 L 979 1814 L 985 1814 L 988 1817 L 994 1817 L 997 1820 L 1009 1820 L 1012 1823 L 1027 1823 L 1029 1825 L 1027 1827 L 979 1827 L 976 1824 L 955 1824 L 952 1821 L 943 1821 L 940 1818 L 931 1818 L 928 1815 L 925 1815 L 922 1812 L 916 1812 L 913 1809 L 910 1809 L 907 1806 L 904 1806 L 901 1803 L 898 1803 L 892 1797 L 889 1797 L 880 1788 L 877 1788 L 845 1756 L 845 1753 L 836 1744 Z M 1309 1550 L 1311 1552 L 1303 1560 L 1301 1558 Z M 922 1544 L 924 1546 L 924 1547 L 925 1547 L 927 1549 L 927 1552 L 936 1561 L 934 1563 L 926 1555 L 926 1554 L 925 1554 L 923 1552 L 923 1549 L 920 1546 Z M 918 1527 L 919 1526 L 927 1534 L 925 1536 L 918 1529 Z M 906 1496 L 907 1496 L 909 1498 L 909 1507 L 907 1509 L 905 1507 L 905 1497 Z M 1330 1469 L 1332 1471 L 1332 1501 L 1329 1504 L 1329 1513 L 1327 1515 L 1325 1513 L 1325 1498 L 1328 1495 L 1328 1471 Z M 904 1469 L 906 1471 L 906 1496 L 905 1497 L 904 1497 L 902 1495 L 902 1471 Z M 833 1240 L 874 1190 L 894 1231 L 903 1282 L 900 1357 L 879 1435 L 852 1492 L 844 1515 L 838 1509 L 828 1543 L 828 1579 L 826 1581 L 807 1567 L 807 1603 L 819 1630 L 811 1632 L 799 1626 L 798 1639 L 813 1675 L 835 1700 L 862 1712 L 910 1712 L 1039 1694 L 1189 1694 L 1327 1712 L 1372 1712 L 1405 1697 L 1421 1678 L 1439 1630 L 1435 1626 L 1426 1632 L 1418 1630 L 1427 1603 L 1430 1570 L 1423 1569 L 1411 1578 L 1406 1576 L 1406 1534 L 1400 1510 L 1396 1506 L 1393 1515 L 1388 1510 L 1382 1489 L 1358 1441 L 1343 1396 L 1334 1351 L 1334 1273 L 1340 1240 L 1360 1193 L 1389 1225 L 1437 1300 L 1473 1378 L 1491 1438 L 1500 1492 L 1500 1585 L 1488 1648 L 1467 1690 L 1438 1716 L 1399 1728 L 1324 1725 L 1162 1701 L 1075 1701 L 883 1728 L 835 1728 L 793 1713 L 761 1678 L 746 1639 L 734 1564 L 734 1507 L 740 1456 L 758 1387 L 803 1288 Z M 1561 1010 L 1566 1015 L 1566 1021 L 1563 1024 L 1563 1027 L 1561 1029 L 1558 1029 L 1555 1032 L 1552 1032 L 1550 1034 L 1548 1034 L 1546 1032 L 1543 1032 L 1539 1028 L 1539 1026 L 1555 1010 Z M 674 1015 L 679 1010 L 682 1010 L 685 1013 L 688 1013 L 699 1024 L 699 1027 L 694 1032 L 682 1032 L 674 1024 Z M 1561 968 L 1563 970 L 1555 978 L 1553 976 Z M 1713 895 L 1708 900 L 1705 900 L 1699 906 L 1696 906 L 1690 912 L 1687 912 L 1681 918 L 1678 918 L 1669 927 L 1666 927 L 1662 931 L 1662 940 L 1665 943 L 1665 952 L 1668 955 L 1668 976 L 1671 979 L 1671 997 L 1668 1000 L 1668 1021 L 1665 1024 L 1665 1033 L 1662 1036 L 1662 1042 L 1659 1045 L 1659 1051 L 1656 1054 L 1656 1060 L 1653 1063 L 1653 1066 L 1650 1069 L 1650 1072 L 1644 1078 L 1644 1081 L 1632 1093 L 1632 1096 L 1621 1107 L 1618 1107 L 1609 1116 L 1606 1116 L 1600 1122 L 1597 1122 L 1594 1125 L 1591 1125 L 1588 1128 L 1582 1128 L 1579 1131 L 1573 1131 L 1570 1134 L 1558 1134 L 1555 1137 L 1513 1137 L 1510 1134 L 1498 1134 L 1495 1131 L 1489 1131 L 1486 1128 L 1480 1128 L 1477 1125 L 1474 1125 L 1471 1122 L 1468 1122 L 1462 1116 L 1459 1116 L 1449 1106 L 1449 1104 L 1494 1059 L 1496 1059 L 1500 1063 L 1500 1066 L 1504 1070 L 1507 1070 L 1513 1076 L 1516 1076 L 1519 1079 L 1525 1079 L 1528 1082 L 1555 1082 L 1558 1079 L 1564 1079 L 1567 1076 L 1570 1076 L 1576 1070 L 1579 1070 L 1592 1057 L 1592 1054 L 1598 1048 L 1598 1045 L 1601 1042 L 1601 1033 L 1604 1030 L 1604 994 L 1601 991 L 1601 985 L 1598 982 L 1598 979 L 1595 976 L 1595 973 L 1589 967 L 1591 965 L 1594 965 L 1606 953 L 1609 953 L 1618 944 L 1621 944 L 1627 938 L 1630 938 L 1636 932 L 1639 932 L 1642 929 L 1645 929 L 1651 923 L 1654 923 L 1660 917 L 1663 917 L 1666 914 L 1669 914 L 1672 911 L 1675 911 L 1678 908 L 1681 908 L 1684 905 L 1687 905 L 1690 902 L 1693 902 L 1696 899 L 1699 899 L 1702 896 L 1705 896 L 1708 893 L 1712 893 Z M 525 893 L 529 893 L 532 896 L 535 896 L 538 899 L 541 899 L 544 902 L 547 902 L 550 905 L 553 905 L 556 908 L 559 908 L 562 911 L 565 911 L 568 914 L 571 914 L 577 920 L 580 920 L 583 923 L 586 923 L 592 929 L 595 929 L 601 935 L 604 935 L 610 941 L 613 941 L 619 947 L 622 947 L 631 956 L 634 956 L 645 967 L 645 970 L 639 976 L 639 979 L 636 982 L 636 985 L 633 988 L 633 997 L 630 1000 L 630 1030 L 633 1033 L 633 1039 L 636 1042 L 636 1045 L 639 1048 L 639 1051 L 645 1057 L 645 1060 L 652 1067 L 655 1067 L 664 1076 L 667 1076 L 670 1079 L 679 1079 L 682 1082 L 706 1082 L 709 1079 L 715 1079 L 718 1076 L 721 1076 L 739 1058 L 742 1058 L 756 1072 L 756 1075 L 786 1105 L 786 1108 L 784 1110 L 781 1110 L 772 1119 L 769 1119 L 766 1122 L 763 1122 L 760 1125 L 757 1125 L 754 1128 L 748 1128 L 745 1131 L 736 1131 L 733 1134 L 721 1134 L 718 1137 L 679 1137 L 676 1134 L 664 1134 L 661 1131 L 655 1131 L 652 1128 L 649 1128 L 646 1125 L 643 1125 L 640 1122 L 637 1122 L 634 1119 L 631 1119 L 625 1113 L 622 1113 L 596 1087 L 596 1084 L 590 1078 L 590 1075 L 587 1072 L 587 1069 L 584 1066 L 584 1063 L 581 1060 L 581 1057 L 578 1054 L 578 1051 L 575 1048 L 575 1039 L 572 1036 L 572 1030 L 569 1027 L 569 1009 L 566 1006 L 566 970 L 569 967 L 569 952 L 572 949 L 572 937 L 575 934 L 575 931 L 571 927 L 568 927 L 559 918 L 556 918 L 550 912 L 547 912 L 538 903 L 535 903 L 532 900 L 529 900 L 524 895 Z M 515 889 L 517 887 L 520 890 L 523 890 L 525 892 L 525 893 L 524 894 L 520 894 L 518 892 L 518 891 L 517 891 Z M 1728 886 L 1726 888 L 1725 888 L 1725 889 L 1723 891 L 1719 891 L 1718 890 L 1718 889 L 1720 887 L 1723 887 L 1726 884 Z M 1206 73 L 1231 74 L 1234 77 L 1258 77 L 1261 80 L 1279 80 L 1282 83 L 1315 86 L 1318 89 L 1330 89 L 1333 92 L 1348 92 L 1351 95 L 1360 95 L 1363 98 L 1375 98 L 1378 101 L 1387 101 L 1390 104 L 1399 104 L 1402 107 L 1423 110 L 1426 113 L 1432 113 L 1444 119 L 1453 119 L 1456 122 L 1480 128 L 1489 134 L 1513 140 L 1522 146 L 1528 146 L 1537 152 L 1543 152 L 1552 158 L 1558 158 L 1573 167 L 1579 167 L 1612 185 L 1618 185 L 1642 197 L 1648 203 L 1669 212 L 1675 218 L 1690 224 L 1714 242 L 1723 245 L 1732 254 L 1735 254 L 1758 271 L 1756 273 L 1723 273 L 1723 278 L 1747 284 L 1756 290 L 1762 290 L 1774 296 L 1780 296 L 1801 308 L 1807 308 L 1816 314 L 1822 314 L 1846 326 L 1861 329 L 1870 335 L 1873 332 L 1879 332 L 1882 329 L 1888 329 L 1891 326 L 1897 326 L 1909 320 L 1918 320 L 1921 317 L 1936 317 L 1939 314 L 1960 314 L 1963 311 L 2017 311 L 2020 314 L 2035 314 L 2038 317 L 2047 317 L 2050 320 L 2065 323 L 2102 341 L 2095 333 L 2065 318 L 2059 318 L 2050 312 L 2032 309 L 2029 306 L 2020 306 L 2017 303 L 2002 303 L 1999 300 L 1939 300 L 1936 303 L 1921 303 L 1918 306 L 1897 309 L 1885 315 L 1870 315 L 1846 303 L 1840 303 L 1831 297 L 1825 297 L 1816 291 L 1792 285 L 1787 280 L 1789 278 L 1801 278 L 1807 281 L 1808 277 L 1789 261 L 1786 261 L 1744 231 L 1735 228 L 1714 213 L 1687 201 L 1681 195 L 1675 195 L 1636 174 L 1630 174 L 1615 165 L 1609 165 L 1585 153 L 1579 153 L 1576 150 L 1561 147 L 1552 141 L 1546 141 L 1543 138 L 1537 138 L 1525 132 L 1516 132 L 1513 129 L 1507 129 L 1504 126 L 1498 126 L 1486 120 L 1477 120 L 1474 117 L 1465 117 L 1453 111 L 1429 108 L 1426 105 L 1417 105 L 1414 102 L 1405 102 L 1402 99 L 1390 99 L 1387 96 L 1378 96 L 1375 93 L 1360 93 L 1357 90 L 1345 90 L 1342 87 L 1330 87 L 1327 84 L 1312 84 L 1309 81 L 1291 81 L 1288 78 L 1267 78 L 1264 75 L 1234 75 L 1231 72 Z M 1052 73 L 1015 72 L 1012 75 L 982 75 L 979 78 L 958 78 L 955 81 L 937 81 L 934 84 L 901 87 L 898 90 L 886 90 L 883 93 L 871 93 L 868 96 L 841 99 L 838 102 L 829 102 L 826 105 L 817 105 L 814 108 L 805 108 L 802 111 L 778 114 L 766 120 L 757 120 L 754 123 L 748 123 L 736 129 L 727 129 L 724 132 L 718 132 L 715 135 L 709 135 L 706 138 L 700 138 L 697 141 L 673 147 L 664 153 L 658 153 L 649 159 L 634 162 L 604 177 L 598 177 L 520 216 L 514 222 L 505 225 L 490 237 L 481 240 L 475 246 L 454 258 L 445 267 L 442 267 L 433 276 L 429 277 L 430 281 L 445 281 L 447 283 L 445 285 L 421 291 L 412 297 L 406 297 L 397 303 L 391 303 L 367 315 L 355 315 L 352 312 L 334 309 L 331 306 L 319 306 L 316 303 L 295 303 L 292 300 L 244 300 L 241 303 L 223 303 L 220 306 L 208 306 L 205 309 L 196 309 L 193 312 L 178 315 L 163 324 L 151 327 L 146 332 L 136 336 L 129 344 L 172 323 L 178 323 L 190 317 L 199 317 L 202 314 L 217 314 L 220 311 L 277 311 L 280 314 L 298 314 L 301 317 L 331 320 L 334 323 L 349 326 L 367 335 L 376 329 L 391 326 L 406 317 L 412 317 L 421 311 L 436 308 L 445 302 L 451 302 L 475 290 L 481 290 L 484 287 L 490 287 L 493 284 L 517 278 L 517 273 L 484 273 L 482 271 L 526 239 L 535 236 L 541 230 L 565 218 L 571 212 L 649 173 L 655 173 L 670 164 L 676 164 L 691 155 L 697 155 L 721 143 L 736 140 L 745 134 L 751 134 L 754 131 L 760 131 L 763 128 L 769 128 L 772 125 L 778 125 L 781 122 L 787 122 L 799 116 L 820 113 L 832 107 L 841 107 L 844 104 L 853 104 L 856 101 L 865 101 L 868 98 L 880 98 L 883 95 L 895 95 L 898 92 L 913 92 L 916 89 L 928 89 L 931 86 L 946 86 L 949 83 L 970 83 L 973 80 L 991 80 L 994 77 L 1021 77 L 1024 74 Z"/>
  </g>
</svg>
